<svg width="143" height="143" viewBox="0 0 143 143" fill="none" xmlns="http://www.w3.org/2000/svg">
<path d="M1.5 71.5C1.5 110.16 32.8401 141.5 71.5 141.5C110.16 141.5 141.5 110.16 141.5 71.5C141.5 32.8401 110.16 1.5 71.5 1.5C32.8401 1.5 1.5 32.8401 1.5 71.5Z" stroke="#DD9C1B" stroke-width="3"/>
<path d="M44.4 91.465C44.01 91.465 43.6633 91.335 43.36 91.075C43.1 90.815 42.9917 90.49 43.035 90.1L44.075 83.015H38.55C38.1167 83.015 37.7483 82.885 37.445 82.625C37.185 82.3217 37.055 81.9533 37.055 81.52V77.88C37.055 77.4033 37.185 77.035 37.445 76.775C37.7483 76.515 38.1167 76.385 38.55 76.385H45.05L46.545 66.505H40.24C39.8067 66.505 39.4383 66.375 39.135 66.115C38.875 65.8117 38.745 65.4433 38.745 65.01V61.37C38.745 60.8933 38.875 60.525 39.135 60.265C39.4383 60.005 39.8067 59.875 40.24 59.875H47.52L48.625 52.79C48.7117 52.4433 48.8633 52.14 49.08 51.88C49.34 51.5767 49.6867 51.425 50.12 51.425H53.89C54.28 51.425 54.605 51.555 54.865 51.815C55.125 52.075 55.2333 52.4 55.19 52.79L54.15 59.875H62.275L63.38 52.79C63.4667 52.4433 63.6183 52.14 63.835 51.88C64.095 51.5767 64.4417 51.425 64.875 51.425H68.645C69.035 51.425 69.36 51.555 69.62 51.815C69.88 52.075 69.9883 52.4 69.945 52.79L68.905 59.875H74.365C74.7983 59.875 75.145 60.005 75.405 60.265C75.7083 60.525 75.86 60.8933 75.86 61.37V65.01C75.86 65.4433 75.7083 65.8117 75.405 66.115C75.145 66.375 74.7983 66.505 74.365 66.505H67.93L66.5 76.385H72.675C73.1083 76.385 73.455 76.515 73.715 76.775C74.0183 77.035 74.17 77.4033 74.17 77.88V81.52C74.17 81.9533 74.0183 82.3217 73.715 82.625C73.455 82.885 73.1083 83.015 72.675 83.015H65.46L64.42 90.1C64.29 91.01 63.7917 91.465 62.925 91.465H59.155C58.765 91.465 58.4183 91.335 58.115 91.075C57.855 90.815 57.7467 90.49 57.79 90.1L58.83 83.015H50.705L49.665 90.1C49.535 91.01 49.0367 91.465 48.17 91.465H44.4ZM51.745 76.385H59.805L61.3 66.505H53.175L51.745 76.385ZM96.9464 94C96.4697 94 96.0797 93.8483 95.7764 93.545C95.5164 93.2417 95.3864 92.8733 95.3864 92.44V58.77L85.5064 66.375C85.1164 66.635 84.7264 66.7433 84.3364 66.7C83.9464 66.6133 83.5997 66.375 83.2964 65.985L80.5664 62.475C80.3064 62.085 80.1981 61.6733 80.2414 61.24C80.3281 60.8067 80.5664 60.46 80.9564 60.2L95.5164 48.955C95.7764 48.7383 96.0364 48.6083 96.2964 48.565C96.5564 48.5217 96.8381 48.5 97.1414 48.5H102.861C103.295 48.5 103.663 48.6517 103.966 48.955C104.27 49.2583 104.421 49.6267 104.421 50.06V92.44C104.421 92.8733 104.27 93.2417 103.966 93.545C103.663 93.8483 103.295 94 102.861 94H96.9464Z" fill="#DD9C1B"/>
</svg>