<svg width="143" height="143" viewBox="0 0 143 143" fill="none" xmlns="http://www.w3.org/2000/svg">
<circle cx="71.5" cy="71.5" r="70" transform="matrix(-1 0 0 1 143 0)" stroke="#DD9C1B" stroke-width="3"/>
<path d="M38.4 91.465C38.01 91.465 37.6633 91.335 37.36 91.075C37.1 90.815 36.9917 90.49 37.035 90.1L38.075 83.015H32.55C32.1167 83.015 31.7483 82.885 31.445 82.625C31.185 82.3217 31.055 81.9533 31.055 81.52V77.88C31.055 77.4033 31.185 77.035 31.445 76.775C31.7483 76.515 32.1167 76.385 32.55 76.385H39.05L40.545 66.505H34.24C33.8067 66.505 33.4383 66.375 33.135 66.115C32.875 65.8117 32.745 65.4433 32.745 65.01V61.37C32.745 60.8933 32.875 60.525 33.135 60.265C33.4383 60.005 33.8067 59.875 34.24 59.875H41.52L42.625 52.79C42.7117 52.4433 42.8633 52.14 43.08 51.88C43.34 51.5767 43.6867 51.425 44.12 51.425H47.89C48.28 51.425 48.605 51.555 48.865 51.815C49.125 52.075 49.2333 52.4 49.19 52.79L48.15 59.875H56.275L57.38 52.79C57.4667 52.4433 57.6183 52.14 57.835 51.88C58.095 51.5767 58.4417 51.425 58.875 51.425H62.645C63.035 51.425 63.36 51.555 63.62 51.815C63.88 52.075 63.9883 52.4 63.945 52.79L62.905 59.875H68.365C68.7983 59.875 69.145 60.005 69.405 60.265C69.7083 60.525 69.86 60.8933 69.86 61.37V65.01C69.86 65.4433 69.7083 65.8117 69.405 66.115C69.145 66.375 68.7983 66.505 68.365 66.505H61.93L60.5 76.385H66.675C67.1083 76.385 67.455 76.515 67.715 76.775C68.0183 77.035 68.17 77.4033 68.17 77.88V81.52C68.17 81.9533 68.0183 82.3217 67.715 82.625C67.455 82.885 67.1083 83.015 66.675 83.015H59.46L58.42 90.1C58.29 91.01 57.7917 91.465 56.925 91.465H53.155C52.765 91.465 52.4183 91.335 52.115 91.075C51.855 90.815 51.7467 90.49 51.79 90.1L52.83 83.015H44.705L43.665 90.1C43.535 91.01 43.0367 91.465 42.17 91.465H38.4ZM45.745 76.385H53.805L55.3 66.505H47.175L45.745 76.385ZM77.4264 94C76.9931 94 76.6247 93.8483 76.3214 93.545C76.0181 93.2417 75.8664 92.8733 75.8664 92.44V89.125C75.8664 88.735 75.9531 88.28 76.1264 87.76C76.3431 87.1967 76.7981 86.6333 77.4914 86.07L87.7614 75.865C90.6214 73.6117 92.9181 71.705 94.6514 70.145C96.4281 68.5417 97.7064 67.09 98.4864 65.79C99.3097 64.4467 99.7214 63.125 99.7214 61.825C99.7214 59.875 99.1797 58.2933 98.0964 57.08C97.0564 55.8667 95.3881 55.26 93.0914 55.26C91.5747 55.26 90.2964 55.585 89.2564 56.235C88.2164 56.8417 87.3931 57.665 86.7864 58.705C86.2231 59.745 85.8331 60.8933 85.6164 62.15C85.5297 62.7133 85.2914 63.1033 84.9014 63.32C84.5114 63.5367 84.1214 63.645 83.7314 63.645H77.9464C77.5564 63.645 77.2314 63.515 76.9714 63.255C76.7114 62.995 76.5814 62.6917 76.5814 62.345C76.6247 60.4817 77.0147 58.6833 77.7514 56.95C78.4881 55.1733 79.5497 53.6133 80.9364 52.27C82.3664 50.8833 84.0997 49.7783 86.1364 48.955C88.1731 48.1317 90.4697 47.72 93.0264 47.72C96.6231 47.72 99.5914 48.3267 101.931 49.54C104.315 50.7533 106.091 52.4 107.261 54.48C108.475 56.56 109.081 58.9 109.081 61.5C109.081 63.5367 108.691 65.4217 107.911 67.155C107.131 68.845 106.005 70.4917 104.531 72.095C103.058 73.655 101.281 75.2583 99.2014 76.905L89.9714 86.265H108.496C108.973 86.265 109.341 86.4167 109.601 86.72C109.905 86.98 110.056 87.3483 110.056 87.825V92.44C110.056 92.8733 109.905 93.2417 109.601 93.545C109.341 93.8483 108.973 94 108.496 94H77.4264Z" fill="#DD9C1B"/>
</svg>