<svg width="143" height="143" viewBox="0 0 143 143" fill="none" xmlns="http://www.w3.org/2000/svg">
<circle cx="71.5" cy="71.5" r="70" transform="matrix(-1 0 0 1 143 0)" stroke="#DD9C1B" stroke-width="3"/>
<path d="M38.4 91.465C38.01 91.465 37.6633 91.335 37.36 91.075C37.1 90.815 36.9917 90.49 37.035 90.1L38.075 83.015H32.55C32.1167 83.015 31.7483 82.885 31.445 82.625C31.185 82.3217 31.055 81.9533 31.055 81.52V77.88C31.055 77.4033 31.185 77.035 31.445 76.775C31.7483 76.515 32.1167 76.385 32.55 76.385H39.05L40.545 66.505H34.24C33.8067 66.505 33.4383 66.375 33.135 66.115C32.875 65.8117 32.745 65.4433 32.745 65.01V61.37C32.745 60.8933 32.875 60.525 33.135 60.265C33.4383 60.005 33.8067 59.875 34.24 59.875H41.52L42.625 52.79C42.7117 52.4433 42.8633 52.14 43.08 51.88C43.34 51.5767 43.6867 51.425 44.12 51.425H47.89C48.28 51.425 48.605 51.555 48.865 51.815C49.125 52.075 49.2333 52.4 49.19 52.79L48.15 59.875H56.275L57.38 52.79C57.4667 52.4433 57.6183 52.14 57.835 51.88C58.095 51.5767 58.4417 51.425 58.875 51.425H62.645C63.035 51.425 63.36 51.555 63.62 51.815C63.88 52.075 63.9883 52.4 63.945 52.79L62.905 59.875H68.365C68.7983 59.875 69.145 60.005 69.405 60.265C69.7083 60.525 69.86 60.8933 69.86 61.37V65.01C69.86 65.4433 69.7083 65.8117 69.405 66.115C69.145 66.375 68.7983 66.505 68.365 66.505H61.93L60.5 76.385H66.675C67.1083 76.385 67.455 76.515 67.715 76.775C68.0183 77.035 68.17 77.4033 68.17 77.88V81.52C68.17 81.9533 68.0183 82.3217 67.715 82.625C67.455 82.885 67.1083 83.015 66.675 83.015H59.46L58.42 90.1C58.29 91.01 57.7917 91.465 56.925 91.465H53.155C52.765 91.465 52.4183 91.335 52.115 91.075C51.855 90.815 51.7467 90.49 51.79 90.1L52.83 83.015H44.705L43.665 90.1C43.535 91.01 43.0367 91.465 42.17 91.465H38.4ZM45.745 76.385H53.805L55.3 66.505H47.175L45.745 76.385ZM93.1564 94.65C90.1231 94.65 87.5014 94.2817 85.2914 93.545C83.0814 92.8083 81.2397 91.855 79.7664 90.685C78.3364 89.4717 77.2531 88.1717 76.5164 86.785C75.7797 85.355 75.3897 83.9467 75.3464 82.56C75.3464 82.17 75.4764 81.8667 75.7364 81.65C76.0397 81.39 76.3864 81.26 76.7764 81.26H82.6264C83.0597 81.26 83.4281 81.3467 83.7314 81.52C84.0347 81.6933 84.2947 82.04 84.5114 82.56C84.9014 83.73 85.5297 84.6617 86.3964 85.355C87.3064 86.0483 88.3464 86.5467 89.5164 86.85C90.6864 87.11 91.9214 87.24 93.2214 87.24C95.8214 87.24 97.8797 86.6333 99.3964 85.42C100.956 84.1633 101.736 82.3867 101.736 80.09C101.736 77.7933 101.021 76.1467 99.5914 75.15C98.1614 74.11 96.1681 73.59 93.6114 73.59H86.9164C86.4397 73.59 86.0497 73.46 85.7464 73.2C85.4431 72.8967 85.2914 72.5067 85.2914 72.03V69.3C85.2914 68.8667 85.3781 68.4983 85.5514 68.195C85.7681 67.8483 85.9847 67.5667 86.2014 67.35L97.8364 55.975H79.2464C78.7697 55.975 78.3797 55.8233 78.0764 55.52C77.8164 55.2167 77.6864 54.8483 77.6864 54.415V50.125C77.6864 49.6483 77.8164 49.2583 78.0764 48.955C78.3797 48.6517 78.7697 48.5 79.2464 48.5H107.131C107.608 48.5 107.998 48.6517 108.301 48.955C108.605 49.2583 108.756 49.6483 108.756 50.125V54.025C108.756 54.415 108.67 54.7617 108.496 55.065C108.323 55.3683 108.128 55.6283 107.911 55.845L96.6664 67.415L97.4464 67.48C100.09 67.6967 102.43 68.3033 104.466 69.3C106.546 70.2533 108.15 71.6617 109.276 73.525C110.446 75.3883 111.031 77.7283 111.031 80.545C111.031 83.4917 110.251 86.0267 108.691 88.15C107.175 90.23 105.073 91.8333 102.386 92.96C99.6997 94.0867 96.6231 94.65 93.1564 94.65Z" fill="#DD9C1B"/>
</svg>