<svg width="143" height="143" viewBox="0 0 143 143" fill="none" xmlns="http://www.w3.org/2000/svg">
<circle cx="71.5" cy="71.5" r="70" transform="matrix(-1 0 0 1 143 0)" stroke="#DD9C1B" stroke-width="3"/>
<path d="M36.4 91.465C36.01 91.465 35.6633 91.335 35.36 91.075C35.1 90.815 34.9917 90.49 35.035 90.1L36.075 83.015H30.55C30.1167 83.015 29.7483 82.885 29.445 82.625C29.185 82.3217 29.055 81.9533 29.055 81.52V77.88C29.055 77.4033 29.185 77.035 29.445 76.775C29.7483 76.515 30.1167 76.385 30.55 76.385H37.05L38.545 66.505H32.24C31.8067 66.505 31.4383 66.375 31.135 66.115C30.875 65.8117 30.745 65.4433 30.745 65.01V61.37C30.745 60.8933 30.875 60.525 31.135 60.265C31.4383 60.005 31.8067 59.875 32.24 59.875H39.52L40.625 52.79C40.7117 52.4433 40.8633 52.14 41.08 51.88C41.34 51.5767 41.6867 51.425 42.12 51.425H45.89C46.28 51.425 46.605 51.555 46.865 51.815C47.125 52.075 47.2333 52.4 47.19 52.79L46.15 59.875H54.275L55.38 52.79C55.4667 52.4433 55.6183 52.14 55.835 51.88C56.095 51.5767 56.4417 51.425 56.875 51.425H60.645C61.035 51.425 61.36 51.555 61.62 51.815C61.88 52.075 61.9883 52.4 61.945 52.79L60.905 59.875H66.365C66.7983 59.875 67.145 60.005 67.405 60.265C67.7083 60.525 67.86 60.8933 67.86 61.37V65.01C67.86 65.4433 67.7083 65.8117 67.405 66.115C67.145 66.375 66.7983 66.505 66.365 66.505H59.93L58.5 76.385H64.675C65.1083 76.385 65.455 76.515 65.715 76.775C66.0183 77.035 66.17 77.4033 66.17 77.88V81.52C66.17 81.9533 66.0183 82.3217 65.715 82.625C65.455 82.885 65.1083 83.015 64.675 83.015H57.46L56.42 90.1C56.29 91.01 55.7917 91.465 54.925 91.465H51.155C50.765 91.465 50.4183 91.335 50.115 91.075C49.855 90.815 49.7467 90.49 49.79 90.1L50.83 83.015H42.705L41.665 90.1C41.535 91.01 41.0367 91.465 40.17 91.465H36.4ZM43.745 76.385H51.805L53.3 66.505H45.175L43.745 76.385ZM96.6164 94C96.1831 94 95.8147 93.8483 95.5114 93.545C95.2081 93.2417 95.0564 92.8733 95.0564 92.44V84.12H74.4514C73.9747 84.12 73.5847 83.9683 73.2814 83.665C73.0214 83.3617 72.8914 82.9933 72.8914 82.56V78.14C72.8914 77.88 72.9347 77.5767 73.0214 77.23C73.1514 76.84 73.3464 76.4933 73.6064 76.19L92.7814 49.605C93.3447 48.8683 94.1464 48.5 95.1864 48.5H102.271C102.705 48.5 103.073 48.6517 103.376 48.955C103.68 49.2583 103.831 49.6267 103.831 50.06V76.45H109.616C110.136 76.45 110.526 76.6017 110.786 76.905C111.09 77.165 111.241 77.5333 111.241 78.01V82.56C111.241 82.9933 111.09 83.3617 110.786 83.665C110.483 83.9683 110.115 84.12 109.681 84.12H103.831V92.44C103.831 92.8733 103.68 93.2417 103.376 93.545C103.073 93.8483 102.705 94 102.271 94H96.6164ZM81.9264 76.71H95.2514V57.925L81.9264 76.71Z" fill="#DD9C1B"/>
</svg>