<svg width="143" height="143" viewBox="0 0 143 143" fill="none" xmlns="http://www.w3.org/2000/svg">
<circle cx="71.5" cy="71.5" r="70" transform="matrix(-1 0 0 1 143 0)" stroke="#DD9C1B" stroke-width="3"/>
<path d="M38.4 91.465C38.01 91.465 37.6633 91.335 37.36 91.075C37.1 90.815 36.9917 90.49 37.035 90.1L38.075 83.015H32.55C32.1167 83.015 31.7483 82.885 31.445 82.625C31.185 82.3217 31.055 81.9533 31.055 81.52V77.88C31.055 77.4033 31.185 77.035 31.445 76.775C31.7483 76.515 32.1167 76.385 32.55 76.385H39.05L40.545 66.505H34.24C33.8067 66.505 33.4383 66.375 33.135 66.115C32.875 65.8117 32.745 65.4433 32.745 65.01V61.37C32.745 60.8933 32.875 60.525 33.135 60.265C33.4383 60.005 33.8067 59.875 34.24 59.875H41.52L42.625 52.79C42.7117 52.4433 42.8633 52.14 43.08 51.88C43.34 51.5767 43.6867 51.425 44.12 51.425H47.89C48.28 51.425 48.605 51.555 48.865 51.815C49.125 52.075 49.2333 52.4 49.19 52.79L48.15 59.875H56.275L57.38 52.79C57.4667 52.4433 57.6183 52.14 57.835 51.88C58.095 51.5767 58.4417 51.425 58.875 51.425H62.645C63.035 51.425 63.36 51.555 63.62 51.815C63.88 52.075 63.9883 52.4 63.945 52.79L62.905 59.875H68.365C68.7983 59.875 69.145 60.005 69.405 60.265C69.7083 60.525 69.86 60.8933 69.86 61.37V65.01C69.86 65.4433 69.7083 65.8117 69.405 66.115C69.145 66.375 68.7983 66.505 68.365 66.505H61.93L60.5 76.385H66.675C67.1083 76.385 67.455 76.515 67.715 76.775C68.0183 77.035 68.17 77.4033 68.17 77.88V81.52C68.17 81.9533 68.0183 82.3217 67.715 82.625C67.455 82.885 67.1083 83.015 66.675 83.015H59.46L58.42 90.1C58.29 91.01 57.7917 91.465 56.925 91.465H53.155C52.765 91.465 52.4183 91.335 52.115 91.075C51.855 90.815 51.7467 90.49 51.79 90.1L52.83 83.015H44.705L43.665 90.1C43.535 91.01 43.0367 91.465 42.17 91.465H38.4ZM45.745 76.385H53.805L55.3 66.505H47.175L45.745 76.385ZM92.8314 94.715C89.1047 94.715 85.9631 94.1083 83.4064 92.895C80.8497 91.6383 78.8997 90.0133 77.5564 88.02C76.2564 86.0267 75.5631 83.9033 75.4764 81.65C75.4331 81.26 75.5414 80.9567 75.8014 80.74C76.1047 80.48 76.4514 80.35 76.8414 80.35H82.8864C83.3631 80.35 83.7531 80.4583 84.0564 80.675C84.4031 80.8483 84.6631 81.1733 84.8364 81.65C85.2697 82.95 85.8764 84.0117 86.6564 84.835C87.4797 85.6583 88.4114 86.265 89.4514 86.655C90.5347 87.045 91.6614 87.24 92.8314 87.24C94.3914 87.24 95.7997 86.9367 97.0564 86.33C98.3564 85.68 99.3964 84.7267 100.176 83.47C100.956 82.2133 101.346 80.675 101.346 78.855C101.346 77.2517 100.978 75.865 100.241 74.695C99.5047 73.525 98.4864 72.615 97.1864 71.965C95.9297 71.2717 94.4781 70.925 92.8314 70.925C91.6181 70.925 90.6214 71.0767 89.8414 71.38C89.0614 71.6833 88.3897 72.03 87.8264 72.42C87.3064 72.81 86.8297 73.1567 86.3964 73.46C86.0064 73.7633 85.5514 73.915 85.0314 73.915H79.0514C78.6614 73.915 78.3147 73.785 78.0114 73.525C77.7514 73.2217 77.6214 72.875 77.6214 72.485L79.8964 50.255C79.9397 49.6917 80.1347 49.2583 80.4814 48.955C80.8281 48.6517 81.2397 48.5 81.7164 48.5H106.156C106.59 48.5 106.958 48.6517 107.261 48.955C107.565 49.2583 107.716 49.6267 107.716 50.06V54.415C107.716 54.8483 107.565 55.2167 107.261 55.52C106.958 55.8233 106.59 55.975 106.156 55.975H87.3714L86.3314 66.57C87.1114 66.05 88.1514 65.5517 89.4514 65.075C90.7514 64.5983 92.5497 64.36 94.8464 64.36C96.9264 64.36 98.8981 64.7067 100.761 65.4C102.668 66.05 104.358 67.025 105.831 68.325C107.305 69.5817 108.453 71.12 109.276 72.94C110.143 74.7167 110.576 76.7533 110.576 79.05C110.576 82.2133 109.84 84.965 108.366 87.305C106.893 89.645 104.835 91.465 102.191 92.765C99.5481 94.065 96.4281 94.715 92.8314 94.715Z" fill="#DD9C1B"/>
</svg>