<svg width="199" height="49" viewBox="0 0 199 49" fill="none" xmlns="http://www.w3.org/2000/svg">
<g clip-path="url(#clip0_37_22)">
<path d="M20.4102 34.1695V7.77019C20.415 6.71211 20.024 5.69046 19.3141 4.90593C18.6043 4.12141 17.6268 3.63066 16.5737 3.53013C13.2482 3.23485 9.9628 2.59182 6.77136 1.61157L1.34268 -0.0383628C1.1735 -0.0496823 1.00385 -0.0246898 0.845118 0.0349415C0.686382 0.0945729 0.542209 0.187455 0.422309 0.307374C0.302409 0.427292 0.209542 0.571459 0.14992 0.73022C0.0902978 0.888981 0.0653093 1.05868 0.076627 1.22789V21.7181C0.0488544 27.7223 1.77569 33.6039 5.04491 38.6398C8.1229 43.4092 12.6874 47.0304 18.0315 48.9424C18.3098 49.024 18.6029 49.0414 18.8889 48.9933C19.1748 48.9453 19.4461 48.833 19.6825 48.665C19.9188 48.4969 20.114 48.2775 20.2533 48.0232C20.3926 47.7688 20.4725 47.4862 20.4869 47.1966V37.834H20.391C18.2678 37.8176 16.1951 37.1844 14.4252 36.0114C12.816 34.9857 11.4954 33.5658 10.5887 31.8864C13.606 33.3872 16.9254 34.1811 20.2951 34.2079L20.4102 34.1695ZM15.039 19.5885C13.8731 19.0992 12.6359 18.8012 11.3752 18.7059C10.0576 18.7948 8.76259 19.0927 7.53865 19.5885C7.38721 19.6425 7.22371 19.6531 7.06658 19.6191C6.90944 19.5852 6.76489 19.508 6.64924 19.3964C6.53359 19.2847 6.45144 19.1429 6.412 18.987C6.37257 18.8312 6.37743 18.6673 6.42605 18.5141C6.76724 17.5022 7.41722 16.6229 8.28442 15.9999C9.15163 15.3769 10.1924 15.0417 11.2601 15.0415C12.3271 15.0446 13.3665 15.3809 14.2332 16.0035C15.0998 16.626 15.7504 17.5037 16.0941 18.5141C16.1369 18.6613 16.1398 18.8174 16.1023 18.9661C16.0649 19.1148 15.9885 19.2509 15.8811 19.3603C15.7736 19.4697 15.639 19.5485 15.491 19.5886C15.343 19.6287 15.187 19.6287 15.039 19.5885Z" fill="#DD9C1B"/>
<path d="M41.7413 0.0191888L35.6604 1.80343C32.5309 2.70974 29.3172 3.29473 26.0692 3.54933C25.1126 3.63577 24.2233 4.07791 23.5769 4.78836C22.9305 5.49881 22.574 6.42588 22.5779 7.38645V34.2463H22.6738C24.8023 34.2488 26.8832 34.8758 28.6588 36.0497C30.2319 37.0833 31.5133 38.5036 32.3802 40.1746C29.3706 38.6737 26.056 37.8859 22.693 37.8724H22.5779V47.2349C22.5779 47.7437 22.78 48.2318 23.1398 48.5916C23.4995 48.9514 23.9874 49.1535 24.4962 49.1535C24.6979 49.1496 24.8981 49.1173 25.0909 49.0576C35.7755 45.3739 43.0649 34.3422 43.0649 21.8332V1.28544C43.0774 1.11095 43.0512 0.935827 42.9882 0.772607C42.9253 0.609388 42.8271 0.462079 42.7007 0.341154C42.5743 0.220229 42.4228 0.128648 42.2569 0.0729961C42.0911 0.0173441 41.9151 -0.00100684 41.7413 0.0191888ZM37.7897 16.1734C37.4485 17.1853 36.7986 18.0647 35.9314 18.6877C35.0642 19.3106 34.0234 19.6459 32.9557 19.6461C31.8903 19.6472 30.8513 19.3148 29.9844 18.6955C29.1175 18.0761 28.4661 17.2009 28.1217 16.1926C28.073 16.0394 28.0682 15.8756 28.1076 15.7197C28.1471 15.5638 28.2292 15.4221 28.3449 15.3104C28.4605 15.1987 28.6051 15.1216 28.7622 15.0876C28.9193 15.0537 29.0828 15.0643 29.2343 15.1182C30.3847 15.5869 31.6017 15.8717 32.8406 15.9624C34.1578 15.8714 35.4525 15.5736 36.6771 15.0799C36.8308 15.0145 37.0005 14.9963 37.1646 15.0274C37.3286 15.0585 37.4798 15.1376 37.5989 15.2547C37.718 15.3717 37.7998 15.5216 37.8337 15.6851C37.8677 15.8487 37.8524 16.0186 37.7897 16.1734Z" fill="#DD9C1B"/>
<path d="M52.8288 14.2932C52.8242 14.1921 52.8425 14.0913 52.8824 13.9983C52.9222 13.9052 52.9826 13.8224 53.059 13.756C53.2095 13.6302 53.3999 13.5622 53.5961 13.5642H71.0906C71.2814 13.5597 71.4667 13.6284 71.6085 13.756C71.6873 13.8215 71.7506 13.9036 71.7937 13.9966C71.8368 14.0895 71.8588 14.1908 71.8579 14.2932V18.3222C71.8595 18.5242 71.7918 18.7205 71.6661 18.8786C71.5986 18.9661 71.5112 19.0362 71.411 19.083C71.3109 19.1297 71.201 19.1517 71.0906 19.1472H65.4509V36.9322C65.4553 37.0315 65.4388 37.1307 65.4025 37.2233C65.3661 37.3158 65.3107 37.3996 65.2399 37.4694C65.1735 37.5458 65.0907 37.6062 64.9977 37.646C64.9047 37.6859 64.8039 37.7042 64.7028 37.6996H59.9263C59.735 37.6887 59.5529 37.6145 59.4084 37.4886C59.3326 37.4176 59.2729 37.3313 59.2332 37.2353C59.1935 37.1394 59.1747 37.036 59.1782 36.9322V19.1472H53.5769C53.4779 19.1493 53.3794 19.1318 53.2872 19.0955C53.195 19.0593 53.1109 19.0051 53.0398 18.9361C52.9595 18.8564 52.8974 18.7603 52.8577 18.6543C52.818 18.5484 52.8016 18.4351 52.8096 18.3222L52.8288 14.2932Z" fill="#FDFDFD"/>
<path d="M81.3725 19.2431C81.6063 18.9013 81.8909 18.5973 82.2165 18.3414C82.6028 18.0204 83.0282 17.7497 83.4825 17.5357C83.9769 17.2899 84.4984 17.1031 85.0363 16.9793C85.6312 16.8237 86.2438 16.7463 86.8587 16.749C87.9764 16.7246 89.083 16.9749 90.0813 17.4781C90.97 17.9241 91.7345 18.5833 92.3065 19.3967C92.9218 20.2659 93.3706 21.2416 93.6301 22.2745C93.9277 23.4209 94.076 24.601 94.0713 25.7854V36.4335C94.0943 36.7686 93.9993 37.1011 93.8028 37.3735C93.6889 37.4831 93.5531 37.5671 93.4042 37.62C93.2554 37.673 93.097 37.6936 92.9396 37.6805H89.103C88.7665 37.7144 88.4284 37.6333 88.1439 37.4503C88.043 37.3212 87.969 37.1732 87.9261 37.015C87.8833 36.8569 87.8726 36.6918 87.8945 36.5294V25.7854C87.8946 25.3368 87.8032 24.8929 87.626 24.4808C87.4526 24.0914 87.205 23.7395 86.897 23.4448C86.5947 23.142 86.2364 22.9009 85.842 22.7349C85.425 22.5766 84.9836 22.4922 84.5376 22.4855C84.1488 22.486 83.764 22.5643 83.4058 22.7157C83.0313 22.8803 82.6875 23.1074 82.3891 23.3872C82.0886 23.6926 81.8364 24.042 81.641 24.4233C81.4476 24.8403 81.3306 25.2887 81.2957 25.7471V36.491C81.2942 36.6761 81.2551 36.8588 81.1806 37.0282C81.1293 37.1998 81.0211 37.3486 80.8737 37.4503C80.7516 37.5373 80.6153 37.6021 80.4709 37.6421H80.0489H76.3658C76.1861 37.6586 76.0049 37.6383 75.8334 37.5822C75.6618 37.5261 75.5036 37.4355 75.3683 37.316C75.1514 37.0599 75.0415 36.7301 75.0614 36.3951V12.1253C75.0445 11.7965 75.1543 11.4738 75.3683 11.2236C75.5036 11.1041 75.6618 11.0135 75.8334 10.9574C76.0049 10.9013 76.1861 10.8809 76.3658 10.8974H80.0489C80.3408 10.9078 80.625 10.9937 80.8737 11.1468C81.0171 11.2525 81.1243 11.3999 81.1806 11.5689C81.2512 11.7328 81.2903 11.9086 81.2957 12.087L81.3725 19.2431Z" fill="#FDFDFD"/>
<path d="M115.326 35.2438C114.381 36.1133 113.29 36.8083 112.103 37.2967C110.885 37.7901 109.581 38.0379 108.266 38.0258C106.827 38.0329 105.4 37.7592 104.065 37.2199C102.769 36.7019 101.584 35.9399 100.574 34.9753C99.5722 34.0094 98.7704 32.8554 98.2147 31.5794C97.616 30.247 97.3149 28.8 97.3323 27.3394C97.33 26.4012 97.4461 25.4666 97.6776 24.5575C97.9102 23.6834 98.245 22.8398 98.6751 22.0442C99.1006 21.2654 99.6226 20.5434 100.229 19.8953C100.836 19.2508 101.527 18.6895 102.281 18.2262C103.05 17.7466 103.884 17.3784 104.756 17.1326C105.671 16.8587 106.621 16.7229 107.576 16.7297C108.458 16.7338 109.335 16.8564 110.185 17.0943C111.017 17.3334 111.815 17.675 112.563 18.1111C113.309 18.5338 113.993 19.0566 114.597 19.6651C115.206 20.2346 115.741 20.8793 116.189 21.5837C116.649 22.2938 116.999 23.0703 117.225 23.886C117.47 24.7075 117.593 25.561 117.589 26.4185C117.589 26.9749 117.589 27.4353 117.589 27.7999C117.588 28.0992 117.501 28.392 117.34 28.644C117.154 28.8787 116.887 29.036 116.592 29.0853C116.079 29.1741 115.558 29.2127 115.038 29.2004H103.336C103.407 29.8271 103.631 30.4268 103.989 30.9463C104.292 31.3918 104.684 31.7706 105.14 32.0591C105.559 32.3423 106.027 32.544 106.521 32.6538C106.973 32.7656 107.436 32.8235 107.902 32.8265C108.301 32.8252 108.699 32.7867 109.091 32.7114C109.502 32.6345 109.906 32.5254 110.3 32.3852C110.662 32.2583 111.015 32.1044 111.355 31.9248C111.631 31.7612 111.888 31.5682 112.122 31.3491C112.26 31.2344 112.408 31.1317 112.563 31.0422C112.685 30.9689 112.824 30.9292 112.966 30.9271C113.124 30.9377 113.277 30.9907 113.407 31.0806C113.582 31.2032 113.743 31.3447 113.887 31.5027L115.613 33.4212C115.709 33.5299 115.786 33.6529 115.843 33.7858C115.863 33.9064 115.863 34.0296 115.843 34.1503C115.842 34.3517 115.775 34.5471 115.652 34.7066C115.569 34.9005 115.46 35.0814 115.326 35.2438ZM107.518 21.6988C107.096 21.6944 106.678 21.7794 106.291 21.9482C105.892 22.1231 105.518 22.3489 105.178 22.6197C104.832 22.9054 104.517 23.2269 104.238 23.579C103.98 23.9213 103.755 24.2875 103.567 24.6726H111.873C111.65 24.2659 111.4 23.8748 111.125 23.5022C110.869 23.1482 110.566 22.8318 110.223 22.5622C109.87 22.288 109.475 22.0741 109.053 21.929C108.532 21.7656 107.987 21.6942 107.441 21.718L107.518 21.6988Z" fill="#FDFDFD"/>
<path d="M142.181 36.5101C142.18 36.6889 142.141 36.8655 142.066 37.0281C142.01 37.1919 141.902 37.3332 141.759 37.431C141.639 37.5404 141.494 37.6193 141.337 37.6612H140.915H137.712C137.528 37.696 137.339 37.696 137.155 37.6612C137.023 37.6056 136.905 37.5203 136.81 37.4118C136.717 37.2905 136.646 37.1542 136.599 37.0089C136.52 36.842 136.456 36.6687 136.407 36.4909L136.196 35.7619C135.88 36.0685 135.547 36.3567 135.199 36.6252C134.811 36.919 134.393 37.1699 133.952 37.3734C133.494 37.6066 133.012 37.7869 132.513 37.9106C131.987 38.0491 131.446 38.12 130.902 38.1216C129.949 38.1219 129 37.9929 128.082 37.738C127.194 37.5016 126.343 37.1466 125.55 36.6827C124.762 36.2259 124.039 35.6644 123.401 35.0136C122.762 34.3704 122.208 33.6483 121.752 32.8648C121.291 32.0635 120.937 31.2058 120.697 30.3132C120.442 29.3752 120.313 28.4074 120.313 27.4353C120.308 25.9941 120.589 24.5662 121.138 23.2337C121.671 21.9745 122.439 20.8285 123.401 19.857C124.369 18.8906 125.516 18.1217 126.778 17.5931C128.084 17.0461 129.486 16.7656 130.902 16.7681C131.549 16.7585 132.194 16.8359 132.82 16.9984C133.376 17.1389 133.911 17.3517 134.412 17.6315C134.891 17.8804 135.336 18.1899 135.736 18.5524C136.116 18.912 136.456 19.3107 136.752 19.7419L137.232 18.2646C137.328 17.9768 137.424 17.7658 137.481 17.5931C137.54 17.4611 137.618 17.3383 137.712 17.2286C137.798 17.1461 137.903 17.0868 138.019 17.0559H138.517H140.953H141.375C141.539 17.0812 141.688 17.1626 141.798 17.2861C141.932 17.393 142.037 17.5314 142.104 17.689C142.183 17.8504 142.222 18.0278 142.22 18.2071L142.181 36.5101ZM126.164 27.3969C126.158 28.0836 126.275 28.7659 126.509 29.4114C126.714 30.0048 127.034 30.5522 127.449 31.023C127.862 31.4874 128.373 31.8544 128.945 32.0974C129.547 32.372 130.202 32.5096 130.863 32.5003C131.523 32.4947 132.175 32.3578 132.782 32.0974C133.394 31.8564 133.949 31.4905 134.412 31.023C134.875 30.5635 135.24 30.0154 135.486 29.4114C135.757 28.7747 135.895 28.0889 135.889 27.3969C135.883 26.737 135.746 26.0849 135.486 25.4784C135.241 24.8568 134.876 24.2896 134.412 23.8092C133.946 23.3361 133.392 22.9581 132.782 22.6965C132.179 22.4217 131.526 22.2778 130.863 22.2744C130.2 22.2615 129.542 22.4062 128.945 22.6965C128.375 22.9605 127.866 23.3393 127.449 23.8092C127.033 24.301 126.714 24.8674 126.509 25.4784C126.29 26.1202 126.186 26.7957 126.202 27.4737L126.164 27.3969Z" fill="#FDFDFD"/>
<path d="M147.36 13.852C147.35 13.7055 147.376 13.5585 147.436 13.4245C147.496 13.2905 147.589 13.1737 147.706 13.0846C147.998 12.886 148.314 12.7249 148.646 12.605L152.329 11.3195H152.636C152.789 11.2999 152.944 11.3216 153.086 11.3823C153.227 11.4431 153.35 11.5406 153.441 11.6649C153.581 11.9512 153.647 12.2676 153.633 12.5858V17.056H155.858C156.012 17.048 156.167 17.0711 156.312 17.1238C156.457 17.1765 156.589 17.2579 156.702 17.363C156.822 17.4824 156.913 17.6271 156.97 17.7865C157.026 17.9458 157.046 18.1158 157.029 18.2839V21.4304C157.046 21.6102 157.026 21.7917 156.97 21.9634C156.914 22.1351 156.823 22.2933 156.702 22.428C156.589 22.5331 156.457 22.6145 156.312 22.6672C156.167 22.72 156.012 22.743 155.858 22.735H153.691V36.4527C153.704 36.6249 153.68 36.798 153.62 36.9602C153.56 37.1223 153.467 37.2699 153.345 37.3928C153.061 37.6131 152.707 37.7222 152.348 37.6997H148.665C148.495 37.7258 148.322 37.7116 148.159 37.6581C147.995 37.6047 147.847 37.5136 147.726 37.3921C147.604 37.2707 147.513 37.1224 147.46 36.9592C147.406 36.796 147.392 36.6224 147.418 36.4527V22.735H145.749C144.924 22.735 144.502 22.2937 144.502 21.4304V18.2839C144.48 18.1156 144.496 17.9443 144.551 17.7836C144.606 17.623 144.698 17.4773 144.819 17.3581C144.94 17.239 145.087 17.1496 145.248 17.0972C145.41 17.0448 145.581 17.0307 145.749 17.056H147.418L147.36 13.852Z" fill="#FDFDFD"/>
<path d="M160.079 18.2647C160.074 18.079 160.113 17.8949 160.194 17.7275C160.263 17.5871 160.361 17.4629 160.481 17.363C160.611 17.2677 160.753 17.1903 160.903 17.1327C161.056 17.1142 161.211 17.1142 161.364 17.1327H163.819C164.061 17.127 164.295 17.2166 164.471 17.3821C164.648 17.5593 164.791 17.7674 164.893 17.9961C165.015 18.268 165.111 18.5506 165.181 18.8402C165.27 19.1352 165.379 19.4237 165.507 19.7036L166.466 18.6484C166.783 18.3108 167.13 18.0026 167.502 17.7275C167.87 17.4506 168.277 17.2307 168.711 17.0751C169.188 16.8928 169.696 16.8017 170.207 16.8066C170.734 16.8073 171.26 16.8523 171.78 16.9409C172.226 17.0253 172.663 17.1538 173.084 17.3246C173.514 17.5 173.926 17.7186 174.312 17.9769C174.715 18.2263 175.156 18.5333 175.636 18.8786C175.829 18.9601 175.997 19.0922 176.122 19.261C176.247 19.4298 176.324 19.629 176.345 19.8379C176.325 20.1337 176.226 20.4188 176.058 20.6629L174.581 23.1954C174.468 23.3861 174.309 23.5447 174.117 23.6556C173.925 23.7665 173.708 23.8261 173.487 23.8285C173.233 23.8217 172.983 23.756 172.758 23.6366C172.341 23.2253 171.862 22.8822 171.339 22.6198C170.817 22.3979 170.256 22.2868 169.689 22.2936C169.311 22.287 168.935 22.3455 168.576 22.4664C168.256 22.578 167.962 22.7543 167.713 22.9843C167.437 23.2066 167.192 23.4647 166.984 23.7518C166.754 24.0587 166.524 24.4041 166.294 24.7686V36.5294C166.308 36.6986 166.288 36.8691 166.236 37.0306C166.183 37.1921 166.098 37.3414 165.987 37.4694C165.851 37.5875 165.692 37.6759 165.521 37.7288C165.349 37.7816 165.168 37.7979 164.989 37.7764H161.364C161.193 37.8017 161.019 37.7871 160.856 37.7336C160.692 37.6802 160.543 37.5894 160.42 37.4685C160.297 37.3476 160.204 37.1999 160.148 37.0369C160.092 36.8739 160.075 36.7002 160.098 36.5294L160.079 18.2647Z" fill="#FDFDFD"/>
<path d="M177.65 27.4738C177.65 26.5018 177.779 25.534 178.034 24.596C178.276 23.7014 178.638 22.8432 179.108 22.0443C179.569 21.2641 180.123 20.5425 180.757 19.8955C181.406 19.2546 182.135 18.7001 182.925 18.2456C183.725 17.7816 184.583 17.4267 185.476 17.1904C186.414 16.9354 187.382 16.8063 188.354 16.8067C189.776 16.8041 191.184 17.0845 192.497 17.6316C193.758 18.1295 194.91 18.8656 195.893 19.7996C196.86 20.7704 197.635 21.9163 198.175 23.1763C198.739 24.5048 199.027 25.9345 199.019 27.3779C199.02 28.35 198.891 29.3178 198.636 30.2558C198.382 31.1465 198.021 32.0032 197.561 32.8074C197.105 33.5958 196.543 34.3186 195.893 34.9562C195.255 35.607 194.532 36.1685 193.744 36.6253C192.945 37.0894 192.087 37.4443 191.193 37.6806C190.275 37.9355 189.326 38.0646 188.373 38.0643C187.401 38.0646 186.433 37.9356 185.496 37.6806C184.602 37.4443 183.744 37.0894 182.944 36.6253C182.153 36.164 181.425 35.603 180.777 34.9562C180.138 34.313 179.583 33.5909 179.127 32.8074C178.66 32.0069 178.299 31.1492 178.053 30.2558C177.8 29.3496 177.664 28.4146 177.65 27.4738ZM183.577 27.4738C183.571 28.1606 183.688 28.8428 183.923 29.4883C184.128 30.0817 184.447 30.6292 184.863 31.0999C185.269 31.5635 185.773 31.9305 186.34 32.1743C186.942 32.446 187.597 32.5834 188.258 32.5772C188.919 32.5865 189.574 32.4489 190.176 32.1743C190.728 31.9251 191.219 31.5585 191.615 31.0999C192.024 30.6281 192.337 30.0805 192.536 29.4883C192.748 28.8382 192.851 28.1576 192.843 27.4738C192.842 26.8221 192.738 26.1746 192.536 25.5553C192.337 24.9454 192.025 24.379 191.615 23.8861C191.215 23.4217 190.726 23.0431 190.176 22.7733C189.579 22.483 188.922 22.3384 188.258 22.3513C187.595 22.3426 186.938 22.4871 186.34 22.7733C185.775 23.0377 185.272 23.4167 184.863 23.8861C184.446 24.3779 184.127 24.9444 183.923 25.5553C183.699 26.1705 183.583 26.8193 183.577 27.4738Z" fill="#FDFDFD"/>
</g>
<defs>
<clipPath id="clip0_37_22">
<rect width="199" height="49" fill="white"/>
</clipPath>
</defs>
</svg>