<svg width="60" height="60" viewBox="0 0 60 60" fill="none" xmlns="http://www.w3.org/2000/svg">
<path d="M60 10.8824C57.7916 11.9118 55.4111 12.5882 52.9446 12.9118C55.4685 11.3529 57.4187 8.88235 58.3365 5.91176C55.956 7.38235 53.3174 8.41177 50.5354 9C48.2696 6.47059 45.086 5 41.4723 5C34.7323 5 29.2256 10.6471 29.2256 17.6176C29.2256 18.6176 29.3403 19.5882 29.5411 20.5C19.3308 19.9706 10.239 14.9412 4.18738 7.32353C3.1262 9.17647 2.5239 11.3529 2.5239 13.6471C2.5239 18.0294 4.67495 21.9118 8.00191 24.1176C5.96558 24.1176 4.07266 23.5294 2.40918 22.6471V22.7353C2.40918 28.8529 6.65392 33.9706 12.2753 35.1176C10.4705 35.6241 8.5758 35.6946 6.73996 35.3235C7.51895 37.8308 9.04456 40.0247 11.1023 41.5969C13.1601 43.169 15.6466 44.0403 18.2122 44.0882C13.8632 47.6189 8.47227 49.5274 2.92543 49.5C1.95029 49.5 0.975144 49.4412 0 49.3235C5.44933 52.9118 11.9312 55 18.8719 55C41.4723 55 53.891 35.7647 53.891 19.0882C53.891 18.5294 53.891 18 53.8623 17.4412C56.2715 15.6765 58.3365 13.4412 60 10.8824Z" fill="white"/>
</svg>